<svg width="45" height="45" viewBox="0 0 45 45" fill="none" xmlns="http://www.w3.org/2000/svg">
<rect width="45" height="45" rx="5.46429" fill="white"/>
<path d="M18.307 11.6551C17.8462 11.6551 17.4715 12.045 17.4715 12.5222V15.4969C17.4715 17.3172 18.0503 18.8177 19.1942 19.9578L20.1909 20.9325C17.9815 22.0944 16.8165 24.1613 16.8165 26.9262C16.8167 31.0971 19.5945 33.8986 23.7258 33.8986H27.0791C27.5394 33.8986 27.9135 33.5084 27.9135 33.0285V32.4714C27.9135 31.992 27.5394 31.6012 27.0791 31.6012H23.7258C20.9042 31.6011 19.0803 29.7662 19.0802 26.9251C19.0802 24.0096 21.0557 22.8825 22.23 22.4715C22.4005 22.4143 22.5716 22.3628 22.7532 22.3176C23.2092 22.2049 23.6665 22.1434 24.0379 22.1434H24.943C25.4024 22.1433 25.7772 21.7538 25.7774 21.2753V20.8249C25.7774 20.3414 25.4373 19.9768 24.9873 19.9768C24.8833 19.9768 24.5477 19.9751 24.2068 19.9726C23.8547 19.9695 23.4966 19.9663 23.3808 19.9663C22.4232 19.9663 21.1395 18.7638 20.7246 18.2986C20.0685 17.5796 19.7353 16.6369 19.7352 15.4969V13.9642L25.9957 13.9663C26.4558 13.9663 26.8302 13.5759 26.8302 13.0971L26.8322 12.5222C26.8322 12.2908 26.7463 12.0731 26.5918 11.9136C26.4354 11.7477 26.2226 11.6551 25.9957 11.6551H18.307Z" fill="black"/>
</svg>
