<svg width="64" height="64" viewBox="0 0 64 64" fill="none" xmlns="http://www.w3.org/2000/svg">
<g clip-path="url(#clip0_6116_15)">
<path d="M48 0H16C7.16344 0 0 7.16344 0 16V48C0 56.8366 7.16344 64 16 64H48C56.8366 64 64 56.8366 64 48V16C64 7.16344 56.8366 0 48 0Z" fill="#0B0F14"/>
<rect x="10" y="10" width="45" height="45" rx="5.46429" fill="white"/>
<path d="M28.307 21.6553C27.8462 21.6553 27.4715 22.0452 27.4715 22.5224V25.497C27.4715 27.3173 28.0503 28.8179 29.1942 29.958L30.191 30.9326C27.9815 32.0946 26.8165 34.1614 26.8165 36.9263C26.8167 41.0973 29.5945 43.8988 33.7258 43.8988H37.0792C37.5394 43.8988 37.9135 43.5085 37.9135 43.0286V42.4716C37.9135 41.9922 37.5394 41.6014 37.0792 41.6014H33.7258C30.9042 41.6013 29.0803 39.7663 29.0802 36.9253C29.0802 34.0098 31.0557 32.8826 32.23 32.4716C32.4005 32.4145 32.5716 32.363 32.7532 32.3177C33.2093 32.2051 33.6665 32.1436 34.038 32.1436H34.943C35.4024 32.1435 35.7772 31.754 35.7775 31.2755V30.825C35.7775 30.3416 35.4373 29.977 34.9873 29.977C34.8833 29.977 34.5477 29.9753 34.2068 29.9728C33.8548 29.9697 33.4966 29.9664 33.3808 29.9664C32.4232 29.9664 31.1396 28.764 30.7247 28.2988C30.0685 27.5798 29.7353 26.637 29.7352 25.497V23.9644L35.9958 23.9664C36.4558 23.9664 36.8302 23.5761 36.8302 23.0972L36.8322 22.5224C36.8322 22.2909 36.7464 22.0732 36.5918 21.9137C36.4354 21.7478 36.2226 21.6553 35.9958 21.6553H28.307Z" fill="black"/>
</g>
<defs>
<clipPath id="clip0_6116_15">
<rect width="64" height="64" fill="white"/>
</clipPath>
</defs>
</svg>
